<svg width="96" height="96" xmlns="http://www.w3.org/2000/svg" xmlns:xlink="http://www.w3.org/1999/xlink" xml:space="preserve" overflow="hidden"><g transform="translate(-526 -576)"><path d="M557 607 546 607 546 600 557 600 557 607ZM572 600 572 607 561 607 561 600 572 600ZM587 600 587 607 576 607 576 600 587 600ZM602 600 602 607 591 607 591 600 602 600ZM602 618 591 618 591 611 602 611 602 618ZM602 626.5 591 627.5 591 622 602 622 602 626.5ZM557 622 557 630.5 546 631.5 546 622 557 622ZM557 618 546 618 546 611 557 611 557 618ZM572 618 561 618 561 611 572 611 572 618ZM576 618 576 611 587 611 587 618 576 618ZM572 629.2 561 630.2 561 622 572 622 572 629.2ZM576 622 587 622 587 627.8 576 628.8 576 622ZM608 632 608 594 546 594 546 593C546 588 542 584 537 584 535.3 584 534 585.3 534 587 534 588.7 535.3 590 537 590 538.7 590 540 591.3 540 593L540 643C540 648 544 652 549 652L552 652 596 652 605 652C606.7 652 608 650.7 608 649 608 647.3 606.7 646 605 646L549 646C547.3 646 546 644.7 546 643L546 637.5 608 632Z"/><path d="M558 658C558 661.314 555.314 664 552 664 548.686 664 546 661.314 546 658 546 654.686 548.686 652 552 652 555.314 652 558 654.686 558 658Z"/><path d="M602 658C602 661.314 599.314 664 596 664 592.686 664 590 661.314 590 658 590 654.686 592.686 652 596 652 599.314 652 602 654.686 602 658Z"/></g></svg>