<svg width="96" height="96" xmlns="http://www.w3.org/2000/svg" xmlns:xlink="http://www.w3.org/1999/xlink" xml:space="preserve" overflow="hidden"><g transform="translate(-12 -346)"><path d="M76 376C76 384.837 68.8366 392 60 392 51.1634 392 44 384.837 44 376 44 367.163 51.1634 360 60 360 68.8366 360 76 367.163 76 376Z"/><path d="M92 428 92 412C92 409.6 90.8 407.2 88.8 405.6 84.4 402 78.8 399.6 73.2 398 69.2 396.8 64.8 396 60 396 55.6 396 51.2 396.8 46.8 398 41.2 399.6 35.6 402.4 31.2 405.6 29.2 407.2 28 409.6 28 412L28 428 92 428Z"/></g></svg>