<svg width="96" height="96" xmlns="http://www.w3.org/2000/svg" xmlns:xlink="http://www.w3.org/1999/xlink" xml:space="preserve" overflow="hidden"><g transform="translate(-64 -369)"><path d="M128 399C128 407.837 120.837 415 112 415 103.163 415 96 407.837 96 399 96 390.163 103.163 383 112 383 120.837 383 128 390.163 128 399Z"/><path d="M144 451 144 435C144 432.6 142.8 430.2 140.8 428.6 136.4 425 130.8 422.6 125.2 421 121.2 419.8 116.8 419 112 419 107.6 419 103.2 419.8 98.8 421 93.2 422.6 87.6 425.4 83.2 428.6 81.2 430.2 80 432.6 80 435L80 451 144 451Z"/></g></svg>